<svg width="73" height="80" viewBox="0 0 73 80" fill="none" xmlns="http://www.w3.org/2000/svg">
<path d="M8.53022 72.3499C8.22005 72.123 7.84567 72.0094 7.40706 72.0094H1.80364C1.51606 72.0094 1.23642 72.0741 0.964014 72.2026C0.691959 72.3312 0.465069 72.5182 0.283523 72.764C0.101976 73.0098 0.00741006 73.2915 0 73.6091V78.3507C0.00741006 78.6684 0.101976 78.9502 0.283523 79.1956C0.465069 79.4417 0.691959 79.6289 0.964014 79.757C1.23642 79.886 1.51606 79.95 1.80364 79.95H7.40706C7.84567 79.95 8.22005 79.8367 8.53022 79.6097C8.84038 79.3828 8.99529 78.9971 8.99529 78.4528V77.0687H7.40706V77.7607C7.39965 77.9726 7.37319 78.1257 7.32785 78.2199C7.28233 78.3147 7.22375 78.3754 7.15195 78.4018C7.07996 78.4281 6.96846 78.4413 6.81743 78.4413H2.26871C2.05682 78.4413 1.90174 78.3888 1.80364 78.2824C1.7052 78.1769 1.65615 77.9498 1.65615 77.6021C1.66356 76.8307 1.66744 75.6772 1.66744 74.1423C1.68244 73.9078 1.73148 73.7492 1.81476 73.6659C1.89803 73.5825 2.02277 73.5336 2.18914 73.5181H6.81743C6.96846 73.5181 7.07996 73.5315 7.15195 73.5579C7.22375 73.5846 7.28233 73.6449 7.32785 73.7397C7.37319 73.8342 7.39965 73.9874 7.40706 74.1987V74.7432H8.99529V73.5069C8.99529 72.9625 8.84038 72.5768 8.53022 72.3499Z" fill="white"/>
<path d="M21.6148 72.3499C21.3085 72.123 20.932 72.0094 20.486 72.0094H14.7122C14.2887 72.0094 13.918 72.1456 13.6006 72.4182C13.2829 72.6904 13.1089 73.057 13.0789 73.5181H19.9075C20.0587 73.5181 20.1741 73.5315 20.2536 73.5579C20.3329 73.5846 20.3936 73.6546 20.435 73.7681C20.4765 73.8811 20.4975 74.0592 20.4975 74.3011V77.7155C20.4975 77.9424 20.4747 78.1067 20.4294 78.2088C20.384 78.3108 20.3233 78.3754 20.2478 78.4018C20.1721 78.4281 20.0587 78.4413 19.9075 78.4413H15.2566C15.098 78.4263 14.9768 78.3773 14.8937 78.2937C14.8104 78.2107 14.7577 78.052 14.7349 77.8177V74.3688H13.0789V78.4982C13.0862 78.9745 13.2508 79.3358 13.5724 79.5813C13.8937 79.8274 14.2773 79.95 14.7234 79.95H20.486C20.932 79.95 21.3085 79.8367 21.6148 79.6097C21.9211 79.3828 22.0741 78.9971 22.0741 78.4528V73.5069C22.0741 72.9625 21.9211 72.5768 21.6148 72.3499Z" fill="white"/>
<path d="M34.711 72.0094H26.158V73.518H34.711V72.0094Z" fill="white"/>
<path d="M27.8255 76.6606H33.497V75.1408C32.5141 75.1483 31.5121 75.152 30.4911 75.152H27.8255V74.3691H26.158V79.9503H34.7108V78.4417H27.8255V76.6606Z" fill="white"/>
<path d="M46.213 77.7155C46.213 77.9424 46.1902 78.1067 46.1451 78.2088C46.0994 78.3108 46.0392 78.3754 45.9633 78.4018C45.888 78.4281 45.7746 78.4413 45.6234 78.4413H40.9838C40.8172 78.4263 40.6925 78.3773 40.6094 78.2937C40.5263 78.2107 40.4767 78.052 40.4617 77.8177V72.0094H38.7944V78.4982C38.8096 78.9745 38.9756 79.3358 39.2936 79.5813C39.611 79.8274 39.997 79.95 40.4504 79.95H46.213C46.6516 79.95 47.026 79.8366 47.3361 79.6097C47.6461 79.3828 47.801 78.9971 47.801 78.4528V72.0094H46.213V77.7155Z" fill="white"/>
<path d="M60.4265 72.3499C60.1164 72.123 59.742 72.0094 59.3034 72.0094H53.5182C53.2384 72.0094 52.9757 72.0741 52.7298 72.2026C52.484 72.3312 52.2836 72.5161 52.1285 72.7582C51.9736 73.0006 51.8921 73.2841 51.8848 73.6091V75.1405C51.8921 75.4658 51.9736 75.7494 52.1285 75.9913C52.2836 76.2333 52.484 76.4184 52.7298 76.547C52.9757 76.676 53.2384 76.74 53.5182 76.74L58.7137 76.7286C58.8648 76.7286 58.9784 76.7418 59.0537 76.7684C59.1294 76.7947 59.1897 76.8589 59.2354 76.9611C59.2806 77.0632 59.3034 77.2277 59.3034 77.4547V77.7155C59.3034 77.9424 59.2806 78.1067 59.2354 78.2088C59.1897 78.3108 59.1294 78.3754 59.0537 78.4018C58.9784 78.4281 58.8648 78.4413 58.7137 78.4413H54.0741C53.9076 78.4263 53.7829 78.3773 53.6998 78.2937C53.6165 78.2107 53.5636 78.052 53.5408 77.8177V77.5908H51.8848V78.4982C51.8921 78.9745 52.0567 79.3358 52.3781 79.5813C52.6996 79.8274 53.0872 79.95 53.5408 79.95H59.3034C59.742 79.95 60.1164 79.8367 60.4265 79.6097C60.7365 79.3828 60.8914 78.9971 60.8914 78.4528V76.7173C60.8914 76.1726 60.7365 75.7869 60.4265 75.5601C60.1164 75.3332 59.742 75.2197 59.3034 75.2197H54.0399C53.8206 75.2047 53.6826 75.1253 53.6258 74.9815C53.5692 74.8383 53.5408 74.6338 53.5408 74.3688C53.5408 74.1042 53.571 73.9004 53.6315 73.7564C53.692 73.613 53.8397 73.5336 54.0741 73.5181H58.7137C58.8723 73.5181 58.9895 73.5315 59.065 73.5579C59.1409 73.5846 59.1994 73.6546 59.2409 73.7681C59.2824 73.8811 59.3034 74.0592 59.3034 74.3011V74.3688H60.8914V73.5069C60.8914 72.9625 60.7365 72.5768 60.4265 72.3499Z" fill="white"/>
<path d="M70.4366 78.1919C70.3421 78.3581 70.1625 78.4413 69.8978 78.4413H67.3115C67.0465 78.4413 66.8674 78.3581 66.7727 78.1919C66.6781 78.0257 66.6309 77.8138 66.6309 77.5564C66.6309 77.2541 66.6766 77.0195 66.7669 76.8533C66.8577 76.6871 67.0239 76.6038 67.266 76.6038H69.9432C70.185 76.6038 70.3518 76.6871 70.4421 76.8533C70.5331 77.0195 70.5787 77.2541 70.5787 77.5564C70.5787 77.8138 70.531 78.0257 70.4366 78.1919ZM67.3967 73.694C67.4608 73.577 67.6063 73.5181 67.8332 73.5181H69.3761C69.603 73.5181 69.7486 73.577 69.813 73.694C69.877 73.8115 69.9093 73.9794 69.9093 74.1987C69.9093 74.456 69.8978 74.6432 69.8752 74.7603C69.8525 74.8776 69.7957 74.9628 69.705 75.0156C69.6145 75.0685 69.4703 75.0948 69.274 75.0948H67.9354C67.7387 75.0948 67.5952 75.0685 67.5042 75.0156C67.4137 74.9628 67.3569 74.8776 67.3343 74.7603C67.3115 74.6432 67.3004 74.456 67.3004 74.1987C67.3004 73.9794 67.3322 73.8115 67.3967 73.694ZM71.9737 75.872C71.7997 75.6338 71.5769 75.4427 71.3043 75.2991C71.4785 75.0722 71.5654 74.8226 71.5654 74.5505V73.9039C71.5654 73.5486 71.4839 73.2269 71.3214 72.9397C71.1586 72.6527 70.9336 72.4256 70.6464 72.259C70.359 72.0929 70.0377 72.0094 69.6824 72.0094H67.5273C67.1714 72.0094 66.8502 72.0929 66.5629 72.259C66.2754 72.4256 66.0506 72.6527 65.8881 72.9397C65.7252 73.2269 65.6439 73.5486 65.6439 73.9039V74.5505C65.6439 74.8302 65.7274 75.0835 65.8936 75.3104C65.6213 75.4464 65.4003 75.6338 65.2298 75.872C65.0597 76.1102 64.9749 76.3843 64.9749 76.6943V78.0558C64.9749 78.4112 65.056 78.7325 65.2185 79.0197C65.381 79.3073 65.6062 79.5342 65.8936 79.7005C66.1808 79.8667 66.5022 79.95 66.8577 79.95H70.3518C70.7067 79.95 71.0284 79.8667 71.316 79.7005C71.6032 79.5342 71.8281 79.3073 71.991 79.0197C72.1533 78.7325 72.2345 78.4112 72.2345 78.0558V76.6943C72.2345 76.3843 72.1475 76.1102 71.9737 75.872Z" fill="white"/>
<path d="M25.0433 26.3219C24.5883 25.9496 23.9332 26.5975 24.3923 26.9729C26.8482 28.9819 30.3177 28.9846 32.7777 26.9812C33.0301 26.7757 32.9456 26.4884 32.7434 26.3319C32.7217 26.2834 32.6923 26.2358 32.6482 26.1908C30.2731 23.7649 26.3944 23.4323 23.6672 25.4777C23.1987 25.8291 23.6573 26.6287 24.1319 26.2728C26.4465 24.5369 29.6342 24.6726 31.753 26.6075C29.7304 27.9869 26.9618 27.8911 25.0433 26.3219Z" fill="white"/>
<path d="M21.359 36.6237C21.6815 36.3506 21.9953 36.1139 22.2554 35.7748C22.7743 35.0978 23.0407 34.2622 23.023 33.4104C23.0109 32.8187 22.0901 32.8166 22.1023 33.4104C22.1178 34.1585 21.8614 34.8924 21.3394 35.4378C21.0661 35.7232 20.7104 35.9184 20.4544 36.2202C20.2044 36.5149 20.061 36.875 19.9722 37.2476C19.791 38.0077 19.6633 38.7293 19.2838 39.4254C18.911 40.1093 18.4018 40.7199 17.7817 41.1936C17.3658 41.5114 17.6896 42.1832 18.0998 42.0631C18.2016 42.1204 18.3214 42.1423 18.4329 42.0999C19.5821 41.6629 20.7489 41.2062 21.6896 40.3905C22.1848 39.9609 22.5091 39.4133 22.9198 38.9119C23.2946 38.4546 23.7762 38.0812 24.3246 37.855C24.5543 37.7603 24.7178 37.5495 24.6462 37.2889C24.5864 37.0715 24.3112 36.8718 24.0799 36.9672C23.5128 37.2008 22.9966 37.5151 22.5566 37.9464C22.0823 38.411 21.7743 39.01 21.3111 39.4831C20.8163 39.9883 20.2086 40.3483 19.5689 40.6462C20.1898 39.8007 20.5922 38.8213 20.8083 37.7345C20.8964 37.2917 21.0047 36.9238 21.359 36.6237Z" fill="white"/>
<path d="M34.042 40.6442C34.0421 40.6442 34.0423 40.6441 34.0424 40.644C34.0423 40.6441 34.0422 40.6441 34.0421 40.6442C34.042 40.6442 34.042 40.6442 34.042 40.6442Z" fill="white"/>
<path d="M13.9533 17.3576C14.0369 15.8982 14.5495 14.4557 15.3958 13.2623C15.9096 13.4171 16.4667 13.4037 17.0089 13.3599C17.4327 13.3255 17.8771 13.2726 18.2965 13.3677C18.6926 13.4575 19.0288 13.7045 19.4207 13.8073C20.2446 14.0238 20.9563 13.465 21.7691 13.4578C22.4445 13.4518 23.103 13.6584 23.7348 13.9049C23.3343 14.2588 22.9338 14.6129 22.5331 14.967C22.1049 15.3454 21.6135 15.9575 21.0481 16.1298C20.4989 16.2969 19.8969 15.9732 19.3612 15.8735C18.7767 15.7648 18.2241 15.8229 17.682 16.0732C15.4403 17.1092 15.6059 19.8126 14.6634 21.768C14.2305 20.3345 13.8669 18.865 13.9533 17.3576ZM15.9094 9.3276C16.1391 8.86658 16.3593 8.34082 16.7128 7.95938C16.8872 7.77131 17.0871 7.61464 17.2993 7.47173C17.4087 7.39834 17.5204 7.32847 17.6326 7.25931C17.6679 7.23743 17.8236 7.1164 17.8875 7.09188C17.9299 7.10952 17.9752 7.12381 18.0265 7.12928C19.2 7.25719 20.2677 7.45356 21.0996 8.35229C21.4583 8.73973 21.808 9.16634 22.2868 9.4114C22.8537 9.70127 23.468 9.66846 24.0709 9.5199C25.2602 9.22703 26.8734 8.80642 27.9366 9.68786C28.0105 9.74909 28.0786 9.81613 28.1444 9.88547C27.4751 10.0425 26.904 10.6042 26.5448 11.1863C26.2891 11.6007 26.0867 12.0464 25.8004 12.4418C25.6642 12.63 25.5042 12.8022 25.3362 12.9624C25.2235 13.0697 25.0576 13.2734 24.889 13.2584C24.8122 13.2516 24.7401 13.2729 24.6753 13.3094C24.6518 13.295 24.6277 13.2807 24.6001 13.2694C23.8203 12.9465 23.0282 12.6409 22.1815 12.5575C21.7764 12.5176 21.3614 12.5386 20.965 12.6342C20.5869 12.7255 20.1838 12.9841 19.7854 12.9446C19.4401 12.9102 19.1234 12.6762 18.8027 12.5584C18.4142 12.4156 17.9895 12.3858 17.5788 12.4003C16.9177 12.4236 16.1936 12.5875 15.5675 12.3449C15.5228 12.3041 15.4667 12.2733 15.4044 12.2524C15.1296 11.233 15.444 10.2627 15.9094 9.3276ZM21.9391 4.36251C22.3238 4.36269 22.7273 4.37892 23.0866 4.53365C23.4253 4.67973 23.7178 4.92691 23.9899 5.17056C24.6141 5.73002 25.1418 6.37399 25.5767 7.08976C25.884 7.59541 26.6806 7.13316 26.3717 6.62487C25.8533 5.77201 25.2087 4.99095 24.4435 4.34787C24.2849 4.21449 24.1224 4.08887 23.9528 3.9756C23.9756 3.9689 23.9983 3.9629 24.0215 3.95231C25.2221 3.41014 26.5597 3.21272 27.8676 3.35351C29.0255 3.47824 30.4746 3.87733 31.2078 4.85581C31.256 4.91985 31.3129 4.96519 31.3736 4.99695C31.3348 5.08728 31.3004 5.17726 31.2727 5.26689C31.0933 5.84787 31.1238 6.45091 31.3405 7.01654C31.5501 7.56383 31.8901 8.04619 32.1132 8.58606C32.38 9.23109 32.3052 9.92199 32.3265 10.6034C32.3451 11.1988 32.4012 11.7973 32.5176 12.3821C32.5975 12.7837 32.714 13.1769 32.8719 13.5517C32.0552 13.1454 31.3525 12.542 30.7433 11.8551C30.3405 11.401 29.9814 10.9123 29.6473 10.4063C29.3196 9.91017 29.0042 9.38088 28.5411 8.99661C27.5186 8.14816 25.9437 8.12664 24.7058 8.39905C24.1102 8.53013 23.3969 8.89481 22.7916 8.63387C22.3141 8.42798 21.9886 7.94668 21.6393 7.58271C20.7647 6.67127 19.6146 6.40504 18.4187 6.25472C18.8593 4.78912 20.5569 4.36198 21.9391 4.36251ZM32.6148 0.977355C34.2599 0.793515 35.9225 0.734587 37.5734 0.874672C39.5785 1.04493 41.5593 1.46554 43.5007 1.98459C44.0048 2.11938 44.5064 2.26247 45.0062 2.41155C44.4753 2.37732 43.9393 2.3932 43.404 2.46413C42.0501 2.64356 40.6267 3.11939 39.7092 4.16756C39.2534 3.39797 38.7719 2.61162 39.0824 1.78346C39.2908 1.22788 38.401 0.98794 38.1946 1.53858C37.7765 2.65397 38.4225 3.71025 38.9615 4.65009C39.2274 5.11392 39.5021 5.62522 39.4562 6.1778C39.4151 6.67374 39.1396 7.11923 38.9095 7.5476C38.6635 8.00508 38.4328 8.47438 38.3514 8.99185C38.2671 9.52749 38.3089 10.0698 38.2721 10.6092C38.2195 11.3818 38.0402 12.1628 37.6905 12.8572C37.1964 13.8396 36.4114 14.5778 35.4658 15.1189C35.0497 14.8521 34.6524 14.566 34.3214 14.1912C33.826 13.63 33.5653 12.9109 33.4158 12.1877C33.2987 11.6214 33.2561 11.0428 33.2436 10.4657C33.2293 9.80819 33.2777 9.13705 33.0614 8.5042C32.7036 7.45744 31.7773 6.56418 32.2 5.39392C32.6598 4.12133 33.8869 3.00824 33.3361 1.53858C33.1298 0.988823 32.2396 1.227 32.4481 1.78346C32.7579 2.61003 32.2738 3.40009 31.8195 4.16562C30.9019 3.11886 29.4793 2.64338 28.1264 2.46413C27.4897 2.37979 26.8523 2.37274 26.2231 2.43643C26.6342 2.28629 27.0493 2.14832 27.4668 2.02217C29.1436 1.51529 30.8743 1.17178 32.6148 0.977355ZM48.2091 3.46131C48.2979 3.49289 48.3866 3.52482 48.475 3.55658C48.4233 3.57016 48.372 3.58481 48.3213 3.60139C48.2749 3.61657 48.2296 3.63403 48.1844 3.65168C48.2072 3.58922 48.2155 3.52447 48.2091 3.46131ZM53.1116 6.25348C52.0696 6.38034 51.0267 6.58694 50.2015 7.2863C49.7934 7.63211 49.4928 8.09082 49.075 8.42498C48.5475 8.847 47.97 8.70868 47.3681 8.5416C46.111 8.19262 44.5741 8.04566 43.3876 8.71574C42.3411 9.30678 41.8347 10.5836 41.1011 11.4855C40.3209 12.4444 39.3827 13.2966 38.2234 13.747C38.6583 13.0578 38.9587 12.2798 39.0963 11.4336C39.2574 10.444 39.0505 9.34947 39.4892 8.42974C39.964 7.43433 40.593 6.54354 40.2922 5.3858C40.2585 5.25666 40.2112 5.12733 40.1549 4.99801C40.2165 4.96625 40.274 4.92056 40.3227 4.85581C41.0561 3.87733 42.5055 3.47807 43.663 3.35351C44.9709 3.21272 46.3084 3.41014 47.509 3.95231C47.5322 3.96272 47.5547 3.96872 47.5775 3.97542C47.4078 4.08922 47.2453 4.21519 47.0872 4.34787C46.3217 4.9906 45.6772 5.77201 45.159 6.62487C44.8504 7.13263 45.6463 7.59594 45.9538 7.08976C46.3776 6.39269 46.8885 5.76407 47.4923 5.21467C47.7649 4.96678 48.0537 4.71766 48.3901 4.56011C48.7649 4.38474 49.1842 4.36269 49.5916 4.36251C50.9734 4.36198 52.6705 4.78894 53.1116 6.25348ZM54.8178 7.95938C55.1714 8.34082 55.3916 8.86658 55.6209 9.3276C56.0869 10.263 56.4011 11.2337 56.1259 12.2539C56.0648 12.2743 56.0096 12.3048 55.9646 12.3442C55.3591 12.579 54.6638 12.4315 54.023 12.4029C53.6112 12.3846 53.18 12.4029 52.7862 12.5365C52.4434 12.6528 52.1107 12.9081 51.7453 12.9446C51.3677 12.9822 50.9889 12.7465 50.6331 12.6522C50.2395 12.5478 49.8231 12.5167 49.4178 12.5517C48.5459 12.6267 47.7322 12.9373 46.9305 13.2694C46.9028 13.2807 46.879 13.2948 46.8554 13.3094C46.7908 13.2729 46.7185 13.2516 46.6417 13.2584C46.4715 13.2734 46.3083 13.0706 46.1945 12.9624C46.0265 12.8026 45.8663 12.6298 45.7301 12.4418C45.4436 12.0466 45.2414 11.6007 44.9857 11.1863C44.6281 10.6064 44.0597 10.0465 43.3936 9.88705C44.2857 8.99714 45.7783 9.06207 46.9224 9.37329C47.5459 9.54284 48.1964 9.74732 48.8434 9.57054C49.3661 9.42781 49.7785 9.06083 50.1387 8.67286C50.5535 8.2265 50.9318 7.79089 51.5064 7.54636C52.1334 7.27942 52.8333 7.2025 53.5039 7.12928C53.5553 7.12381 53.6006 7.10952 53.643 7.09188C53.7067 7.1164 53.8628 7.23743 53.8981 7.25931C54.0103 7.32847 54.1218 7.39834 54.231 7.47173C54.4436 7.61464 54.6433 7.77131 54.8178 7.95938ZM56.8672 21.768C55.9246 19.8125 56.0906 17.1094 53.8485 16.0732C53.3074 15.8232 52.7536 15.7636 52.1694 15.8735C51.6364 15.9737 51.0301 16.2964 50.4824 16.1298C50.2054 16.0453 49.9821 15.8356 49.7695 15.6494C49.5112 15.4231 49.2548 15.1944 48.9974 14.967C48.5969 14.6129 48.1964 14.259 47.7959 13.9049C48.4064 13.6669 49.0408 13.4661 49.6929 13.4585C50.5281 13.449 51.2691 14.0282 52.11 13.8073C52.4789 13.7105 52.7975 13.48 53.1659 13.3834C53.583 13.274 54.0264 13.32 54.4507 13.3539C55.0172 13.3991 55.5983 13.4232 56.1347 13.2622C56.9809 14.4557 57.4937 15.8982 57.5772 17.3576C57.6638 18.865 57.3002 20.3345 56.8672 21.768ZM14.2363 22.9189C14.1218 24.2227 14.1197 25.5337 14.2439 26.8375C14.3766 28.231 14.7958 29.6271 14.6989 31.0325C14.685 31.235 14.7848 31.3663 14.9226 31.4298C14.4103 33.3413 14.1839 35.4706 14.7831 37.3554C14.9618 37.918 15.8512 37.6776 15.6709 37.1105C15.0461 35.1453 15.4113 32.9117 16.0094 30.9838C16.1061 30.6726 15.8817 30.4602 15.6308 30.4244C15.6008 29.2225 15.2783 28.0316 15.1647 26.8375C15.0348 25.4746 15.0426 24.1038 15.1731 22.7415C15.8245 21.7475 16.0357 20.5734 16.358 19.4467C16.6714 18.3514 17.2293 17.0365 18.474 16.7666C19.0468 16.6424 19.5994 16.906 20.1513 17.0187C20.7249 17.1357 21.2799 17.1073 21.7875 16.7911C22.3173 16.4612 22.7739 15.9806 23.2393 15.5693C23.7676 15.1023 24.296 14.6353 24.8244 14.1683C24.8456 14.1727 24.8669 14.1773 24.889 14.1791C25.4061 14.2251 25.8544 13.769 26.1785 13.4199C26.5239 13.0474 26.7935 12.6252 27.0377 12.1819C27.3756 11.5683 27.9334 10.5312 28.7711 10.8124C28.7888 10.8184 28.8069 10.8202 28.8249 10.8234C28.8892 10.9239 28.9536 11.0238 29.0197 11.1205C29.3611 11.6185 29.729 12.1018 30.1323 12.5513C31.0114 13.531 32.0801 14.3287 33.3415 14.7348C33.434 14.7646 33.5166 14.7636 33.5894 14.744C34.0444 15.2874 34.6325 15.6872 35.2304 16.0589C35.434 16.1856 35.6298 16.13 35.759 15.9998C35.7914 15.9899 35.8241 15.976 35.8571 15.9576C36.5568 15.5684 37.1664 15.0734 37.6678 14.4936C37.7475 14.6824 37.9349 14.8167 38.1891 14.7348C39.2938 14.3791 40.2546 13.7244 41.0674 12.9029C41.4924 12.4733 41.8744 12.0024 42.2315 11.5151C42.3945 11.2927 42.5439 11.0584 42.6951 10.8257C42.7167 10.8223 42.7382 10.8195 42.7595 10.8124C43.5971 10.5314 44.1551 11.5681 44.493 12.1819C44.7315 12.6154 44.9939 13.0284 45.3292 13.3948C45.6565 13.7523 46.1149 14.226 46.6417 14.1791C46.6636 14.1773 46.6849 14.1727 46.7061 14.1683L48.2361 15.5205C48.7063 15.9361 49.1654 16.4128 49.6913 16.7586C50.1913 17.0873 50.7411 17.1388 51.3189 17.031C51.8923 16.9241 52.4632 16.638 53.0565 16.7666C54.2751 17.0309 54.8408 18.3059 55.1536 19.3816C55.4872 20.5282 55.6934 21.728 56.3575 22.7414C56.4879 24.1036 56.4957 25.4746 56.366 26.8375C56.2524 28.0314 55.9297 29.2225 55.8997 30.4244C55.6488 30.46 55.4244 30.6721 55.5212 30.9838C56.1193 32.9117 56.4844 35.1453 55.8596 37.1105C55.6797 37.6767 56.5685 37.9189 56.7476 37.3554C57.3468 35.4706 57.1202 33.3413 56.6081 31.43C56.7457 31.3667 56.8457 31.2354 56.8318 31.0325C56.7349 29.6271 57.1541 28.231 57.2868 26.8375C57.411 25.5339 57.4087 24.2228 57.2944 22.919C57.4138 22.8758 57.5168 22.7834 57.5654 22.6281C58.1229 20.8451 58.6476 18.9859 58.4791 17.0983C58.3394 15.5355 57.7926 14.0697 56.9112 12.7883C56.927 12.7606 56.9413 12.7307 56.9526 12.6976C57.4364 11.2941 56.9676 9.93751 56.3214 8.67586C56.0228 8.09259 55.7275 7.50649 55.2213 7.07282C54.9669 6.85476 54.689 6.66651 54.4048 6.49025C54.2885 6.41809 54.1769 6.35193 54.0634 6.29847C54.0631 6.26548 54.0595 6.23125 54.0519 6.19544C53.6739 4.43167 51.966 3.64973 50.3204 3.48001C50.2682 3.40697 50.1918 3.34875 50.101 3.31434C46.3033 1.86885 42.3559 0.618319 38.3047 0.153956C34.8114 -0.24654 31.1847 0.157484 27.8055 1.09715C25.9969 1.60015 24.1875 2.28364 22.6218 3.33534C22.5668 3.37221 22.5264 3.41632 22.4975 3.46378C22.2662 3.44296 22.0326 3.43943 21.8048 3.44278C19.9997 3.46978 17.9022 4.21872 17.4787 6.19544C17.472 6.2272 17.4694 6.25719 17.4683 6.28683C17.0498 6.45356 16.652 6.7856 16.3464 7.04107C15.8205 7.48073 15.5161 8.07618 15.2091 8.67586C14.563 9.93751 14.0941 11.2941 14.5779 12.6976C14.5893 12.7306 14.6036 12.7606 14.6195 12.7881C13.7379 14.0697 13.1911 15.5355 13.0516 17.0983C12.8831 18.9859 13.4076 20.8451 13.9651 22.6281C14.0136 22.7832 14.1169 22.8756 14.2363 22.9189Z" fill="white"/>
<path d="M47.3984 26.2728C47.8726 26.6284 48.332 25.8294 47.8631 25.4778C45.1358 23.4322 41.257 23.765 38.8819 26.1907C38.838 26.2357 38.8084 26.2835 38.7867 26.3319C38.5846 26.4885 38.5 26.7756 38.7526 26.9813C41.2126 28.9847 44.6819 28.9818 47.138 26.9728C47.5969 26.5976 46.9421 25.9495 46.4869 26.3218C44.5684 27.891 41.7999 27.9868 39.7773 26.6074C41.8961 24.6727 45.0838 24.5369 47.3984 26.2728Z" fill="white"/>
<path d="M47.2057 37.8551C47.7378 38.0742 48.207 38.4324 48.5768 38.8708C49.0062 39.3796 49.3319 39.9488 49.8411 40.3904C50.7816 41.206 51.9483 41.6628 53.0976 42.1C53.2088 42.1422 53.3286 42.1205 53.4307 42.0631C53.8406 42.1827 54.165 41.5118 53.7488 41.1937C53.1449 40.7323 52.6449 40.1404 52.2753 39.4779C51.878 38.7662 51.7444 38.0285 51.5583 37.2475C51.4697 36.8752 51.3259 36.5146 51.0761 36.2201C50.8326 35.9332 50.4969 35.7455 50.2324 35.4795C49.6851 34.9288 49.4123 34.1808 49.4282 33.4103C49.4404 32.8177 48.5196 32.8177 48.5074 33.4103C48.4901 34.239 48.7412 35.0626 49.2389 35.7281C49.5076 36.0871 49.8324 36.3381 50.1715 36.6238C50.5267 36.9228 50.6343 37.2923 50.7222 37.7344C50.9381 38.8214 51.3407 39.8006 51.9616 40.646C51.3217 40.3484 50.7142 39.9883 50.2193 39.483C49.767 39.0209 49.4642 38.438 49.0069 37.9793C48.5609 37.5319 48.032 37.2067 47.4506 36.9671C47.2206 36.8724 46.9444 37.0698 46.8843 37.2887C46.8118 37.553 46.975 37.7598 47.2057 37.8551Z" fill="white"/>
<path d="M36.232 40.6338C36.2321 40.6338 36.2323 40.6337 36.2324 40.6337C36.2323 40.6337 36.2323 40.6337 36.2323 40.6337C36.2322 40.6337 36.2321 40.6338 36.232 40.6338Z" fill="white"/>
<path d="M40.7428 62.8882C41.5092 62.5461 42.2948 62.1538 42.8397 61.4957C43.2147 61.0426 42.5669 60.3877 42.1884 60.8447C41.7283 61.4004 41.0905 61.7145 40.448 62.0147C40.1359 62.1605 39.8388 62.2818 39.4924 62.1845C39.1316 62.083 38.808 61.8371 38.5079 61.6208C37.939 61.2109 37.4509 60.7217 37.1934 60.0578C36.9188 59.3508 36.8345 58.5736 36.7343 57.8273C36.5139 56.1874 36.3574 54.5203 36.4137 52.8642C36.4412 52.053 36.5293 51.2462 36.7253 50.4575C36.9167 49.6881 37.2493 48.9783 37.5192 48.2364C37.9954 46.9277 38.0508 45.2018 36.7017 44.3857C36.1934 44.0782 35.7301 44.874 36.2369 45.1807C37.591 45.9998 36.6447 47.9483 36.2262 49.0131C36.0303 49.5115 35.8811 50.0217 35.7694 50.5395C35.7009 50.2229 35.618 49.9093 35.5173 49.6002C35.2369 48.7393 34.7634 47.9203 34.6295 47.0162C34.5309 46.3511 34.6791 45.5524 35.2936 45.1807C35.7999 44.8744 35.3377 44.0778 34.8288 44.3857C33.6838 45.0783 33.5167 46.5254 33.843 47.7174C34.0429 48.448 34.3952 49.1256 34.6295 49.8448C34.8804 50.6158 35.021 51.4166 35.0822 52.2243C35.2059 53.8591 35.0753 55.5149 34.883 57.1394C34.7071 58.6255 34.6231 60.2684 33.4165 61.3127C32.88 61.7771 32.1199 62.4151 31.3735 62.1418C30.6379 61.8724 29.8463 61.4539 29.342 60.8447C28.9638 60.3879 28.3156 61.0424 28.6908 61.4957C29.1721 62.0768 29.8343 62.4368 30.5053 62.7564C31.2244 63.0987 31.8654 63.2811 32.6274 62.9408C33.9947 62.3298 35.0571 61.1428 35.4118 59.6894C35.5859 58.9759 35.6722 58.2367 35.7595 57.5064C35.8287 58.0472 35.9088 58.5855 36.0018 59.1195C36.1325 59.8693 36.3458 60.6257 36.7999 61.2483C37.2225 61.8279 37.8057 62.276 38.4031 62.6635C39.1701 63.1606 39.9023 63.2637 40.7428 62.8882Z" fill="white"/>
<path d="M46.2213 47.2588C46.1146 47.1099 45.9468 47.0188 45.7744 47.0345C41.6041 45.5275 38.4296 41.5643 37.9028 37.155C38.418 37.0216 38.9079 36.8145 39.3367 36.4785C39.5104 36.3423 39.6715 36.1834 39.8155 36.0089C41.1602 36.8408 42.3677 37.8697 43.3924 39.077C44.361 40.2185 45.4805 41.8625 44.7986 43.3965C44.7591 43.4503 44.7298 43.5112 44.7132 43.5753C44.5276 43.9562 44.9027 44.3 45.2236 44.2455C46.4434 45.043 47.3272 46.2905 47.6437 47.7237C47.8649 48.726 47.7771 49.7886 47.4283 50.7551C47.3633 49.5083 46.9558 48.2829 46.2213 47.2588ZM35.7652 39.8485C35.2195 39.5841 34.5713 39.5347 33.9876 39.7017C34.2458 38.9276 34.4224 38.1319 34.5277 37.3215C34.9024 37.3685 35.2796 37.3947 35.6473 37.4187C35.69 37.4214 35.7285 37.418 35.765 37.4115C35.8015 37.418 35.8403 37.4214 35.883 37.4187C36.2505 37.3947 36.6279 37.3685 37.0025 37.3215C37.1099 38.1359 37.2968 38.9337 37.5554 39.7058C36.9684 39.5343 36.3149 39.5821 35.7652 39.8485ZM25.7581 47.0338C25.5843 47.016 25.4169 47.1083 25.3089 47.2588C24.5744 48.2829 24.167 49.5081 24.1019 50.7551C23.7531 49.7886 23.6653 48.726 23.8867 47.7237C24.2032 46.2905 25.0871 45.0428 26.3069 44.2453C26.6279 44.2999 27.0033 43.9558 26.8168 43.5744C26.8001 43.5107 26.7711 43.4502 26.7318 43.3964C26.0499 41.8625 27.1693 40.2183 28.1378 39.077C29.1626 37.8697 30.3699 36.8406 31.7147 36.0089C31.8588 36.1834 32.0199 36.3423 32.1937 36.4785C32.6223 36.8145 33.1122 37.0216 33.6276 37.155C33.1007 41.5634 29.9273 45.5262 25.7581 47.0338ZM52.2344 51.1738C52.3697 50.1436 52.4008 49.1025 52.3514 48.0649C52.3212 47.4322 52.3196 46.6815 52.088 46.0525C52.0954 46.0619 52.1014 46.0719 52.1097 46.0809C52.7159 46.7355 53.1082 47.5853 53.2347 48.4592C53.227 48.4733 53.2196 48.4878 53.212 48.5019C53.0941 48.7187 53.1645 48.925 53.3059 49.0555C53.3678 49.2392 53.5333 49.3775 53.739 49.3775C53.9816 49.3775 54.2083 49.1667 54.1995 48.917C54.1961 48.8242 54.1898 48.7318 54.1817 48.6395C55.1167 46.8648 55.8793 44.9715 56.1698 42.9784C56.3223 41.9329 56.3629 40.8754 56.2341 39.8247C56.1127 38.8365 55.9172 37.6155 55.3126 36.7944C54.9652 36.3222 54.1656 36.7809 54.5176 37.2591C55.0613 37.9976 55.2446 39.1358 55.3367 40.0301C55.4387 41.019 55.404 42.0267 55.239 43.0068C54.9918 44.4763 54.4943 45.8794 53.862 47.2217C53.6169 46.5631 53.245 45.9528 52.7607 45.4299C52.5917 45.2473 52.2808 45.2588 52.1097 45.4299C52.0043 45.535 51.9662 45.6753 51.9839 45.8105C51.8766 45.5966 51.7356 45.4025 51.5468 45.2402C51.0996 44.8556 50.4454 45.5042 50.8956 45.8913C51.2346 46.1825 51.3134 46.613 51.3567 47.0402C51.4036 47.5021 51.4309 47.9668 51.4445 48.4308C51.4717 49.3447 51.4399 50.2664 51.3133 51.1729C51.1089 52.6334 50.662 54.0769 49.8713 55.3213C49.6151 53.9924 48.9436 52.7487 47.9533 51.8181C48.6123 50.5264 48.8445 49.043 48.5553 47.5928C48.221 45.9153 47.1668 44.4218 45.7451 43.4863C46.2922 41.8343 45.4157 40.1462 44.3732 38.8284C43.2391 37.3946 41.8421 36.1791 40.2878 35.2192C40.4776 34.7381 40.524 34.21 40.3453 33.7019C40.1394 33.1163 39.7033 32.6982 39.3594 32.1976C39.0367 31.7276 38.8112 31.2091 38.659 30.6609C38.337 29.502 38.3254 28.2855 38.3178 27.0912C38.3169 26.9675 38.2749 26.8712 38.2109 26.7991C38.2096 24.9157 39.3818 23.1858 41.2207 22.6171C42.2634 22.2946 43.3825 22.3313 44.4591 22.4079C45.6176 22.4901 46.7615 22.6808 47.888 22.9612C48.4632 23.1041 48.7086 22.2165 48.1329 22.0732C46.857 21.7558 45.5521 21.551 44.2391 21.4725C43.0288 21.4003 41.7537 21.4035 40.6101 21.8583C38.5002 22.6976 37.1546 24.8072 37.2959 27.0776C37.3029 27.1891 37.3418 27.2795 37.3996 27.3488C37.419 29.0777 37.5409 30.8109 38.3742 32.312C38.3416 32.3423 38.3107 32.3758 38.2807 32.4152C37.8977 32.9164 37.5651 33.4538 37.2869 34.02C37.2318 34.132 37.2064 34.2509 37.2405 34.3748C37.27 34.4815 37.3523 34.5971 37.452 34.6498C37.6595 34.7594 37.9686 34.7155 38.0819 34.4847C38.3174 34.0052 38.5944 33.5479 38.9058 33.114C39.2059 33.4935 39.5535 33.8954 39.536 34.4087C39.5207 34.8707 39.2645 35.297 38.9384 35.6112C38.1463 36.3743 36.9176 36.4304 35.883 36.4979C35.8403 36.5006 35.8017 36.5092 35.7652 36.5205C35.7287 36.5092 35.69 36.5006 35.6473 36.4979C34.6157 36.4306 33.3795 36.3762 32.5919 35.6112C32.2667 35.2954 32.0097 34.8718 31.994 34.4087C31.9769 33.8954 32.3243 33.4935 32.6244 33.114C32.9358 33.5479 33.2128 34.0052 33.4483 34.4847C33.5549 34.7014 33.8797 34.7778 34.0782 34.6498C34.3003 34.5068 34.3573 34.2516 34.2433 34.02C33.9652 33.4538 33.6325 32.9164 33.2496 32.4152C33.2196 32.376 33.1893 32.3416 33.1568 32.3106C33.9892 30.8098 34.1111 29.0771 34.1307 27.3492C34.1884 27.2797 34.2274 27.1893 34.2343 27.0776C34.3756 24.8072 33.03 22.6978 30.9201 21.8583C29.7768 21.4036 28.5012 21.3998 27.2912 21.4725C25.9781 21.5515 24.6736 21.7558 23.3973 22.0732C22.8226 22.2163 23.0661 23.1044 23.6421 22.9612C24.7447 22.6868 25.8645 22.4975 26.9978 22.413C28.097 22.331 29.2441 22.2876 30.3094 22.6171C32.148 23.1856 33.3204 24.9157 33.3195 26.7989C33.2555 26.8709 33.2133 26.9674 33.2126 27.0912C33.2048 28.2855 33.1934 29.5018 32.8714 30.6609C32.7193 31.2084 32.4938 31.7287 32.1708 32.1976C31.8267 32.6971 31.3906 33.117 31.1849 33.7019C31.0062 34.21 31.0526 34.7379 31.2426 35.2192C29.6882 36.179 28.2912 37.3946 27.157 38.8284C26.1146 40.1462 25.2378 41.8343 25.7852 43.4863C24.3634 44.4218 23.3094 45.9153 22.9749 47.5928C22.6857 49.043 22.9181 50.5264 23.5769 51.8181C22.5867 52.7487 21.9151 53.9924 21.6589 55.3213C20.8683 54.0769 20.4212 52.6334 20.2169 51.1729C20.0903 50.2662 20.059 49.3449 20.0857 48.4308C20.0985 47.9855 20.1248 47.5402 20.1679 47.0968C20.2109 46.6524 20.2804 46.1958 20.6345 45.8913C21.0846 45.5043 20.4308 44.8554 19.9835 45.2402C19.7944 45.4027 19.6531 45.5975 19.5456 45.812C19.5638 45.676 19.5255 45.5349 19.4205 45.4299C19.2496 45.2588 18.939 45.2468 18.7695 45.4299C18.2854 45.9528 17.9135 46.5631 17.6684 47.2215C17.0361 45.8794 16.5384 44.4763 16.2912 43.0068C16.1301 42.0491 16.0938 41.0654 16.1869 40.0987C16.2751 39.1836 16.4561 38.0149 17.0126 37.2591C17.3642 36.7815 16.5655 36.3217 16.2176 36.7944C15.6257 37.5983 15.4272 38.7882 15.3048 39.7564C15.1689 40.8304 15.2046 41.9087 15.3605 42.9784C15.6511 44.9717 16.4135 46.8648 17.3485 48.6395C17.3406 48.7318 17.3342 48.8242 17.3309 48.917C17.3221 49.166 17.5488 49.3775 17.7912 49.3775C17.9985 49.3775 18.1635 49.2394 18.2247 49.0554C18.366 48.9248 18.4362 48.7189 18.3184 48.5019C18.3106 48.4878 18.3032 48.4733 18.2956 48.4592C18.4219 47.5853 18.8145 46.7355 19.4205 46.0809C19.4288 46.0719 19.435 46.0617 19.4426 46.0522C19.2106 46.6813 19.2088 47.4322 19.179 48.0649C19.1299 49.1026 19.1606 50.1434 19.296 51.1738C19.5617 53.1979 20.2497 55.1314 21.5492 56.7227C21.6111 57.265 22.4775 57.2525 22.4641 56.6754C22.4327 55.3292 22.8946 54.0236 23.7367 52.9947C23.7062 53.3114 23.7097 53.635 23.7064 53.9522C23.6977 54.7521 23.618 55.5905 23.7783 56.3797C23.9205 57.0785 24.2828 57.7551 24.6005 58.3885C24.919 59.0235 25.3036 59.6263 25.8285 60.1112C25.9982 60.2678 26.2006 60.2634 26.359 60.1768C26.4467 60.1664 26.5351 60.1276 26.6159 60.0521C27.9592 58.7945 29.4703 57.235 29.239 55.229C29.2105 54.982 29.0478 54.7685 28.7787 54.7685C28.5518 54.7685 28.2897 54.9804 28.3182 55.229C28.5077 56.8717 27.3168 58.124 26.2043 59.1757C25.8884 58.8171 25.6425 58.4109 25.423 57.9788C25.1476 57.4361 24.8445 56.8643 24.6974 56.271C24.5358 55.6198 24.6167 54.907 24.624 54.2415C24.6275 53.9068 24.5984 53.525 24.6312 53.1614C24.8403 53.1716 25.0432 52.9915 25.0957 52.7674C25.1623 52.6723 25.1923 52.5487 25.158 52.404C24.7935 50.8687 25.1026 49.2493 25.9597 47.9363C28.5892 47.0007 30.8324 45.2025 32.3857 42.9144C32.388 42.9158 32.3901 42.9179 32.3925 42.9191C32.522 42.9923 32.6787 43.0324 32.822 43.0698C33.1133 43.1457 33.418 43.1876 33.7186 43.1966C34.3213 43.2148 34.9049 43.0828 35.4557 42.8457C35.6777 42.7501 35.7442 42.4071 35.6209 42.2159C35.4723 41.9853 35.2285 41.9482 34.991 42.0506C35.0598 42.0211 34.9017 42.0843 34.8867 42.0895C34.8433 42.1051 34.7998 42.1197 34.7558 42.1337C34.6531 42.1659 34.549 42.1933 34.4439 42.2157C34.3987 42.2256 34.3534 42.2342 34.308 42.242C34.2844 42.2462 34.2606 42.2497 34.2368 42.2535C34.229 42.2543 34.2184 42.2556 34.2022 42.2575C34.1025 42.2662 34.0032 42.2744 33.9031 42.2767C33.8031 42.2787 33.7032 42.2769 33.6034 42.2707C33.5497 42.2672 33.4961 42.2621 33.4425 42.2563C33.4285 42.2542 33.37 42.2466 33.3597 42.2448C33.2537 42.2268 33.1484 42.204 33.0445 42.176C33.0116 42.1674 32.979 42.1575 32.9464 42.1476C32.9324 42.1289 32.9176 42.1111 32.9014 42.0945C33.1355 41.6899 33.3493 41.2732 33.5406 40.845C33.6341 40.8575 33.7306 40.8417 33.8162 40.7856C33.889 40.7377 33.9644 40.6968 34.0418 40.6575C34.039 40.6582 34.0365 40.6582 34.0355 40.6573C34.0365 40.6582 34.0413 40.6568 34.0476 40.6543C34.0492 40.6536 34.0508 40.6527 34.0524 40.652C34.0845 40.6356 34.0834 40.6381 34.0729 40.6441C34.0847 40.6389 34.0958 40.6336 34.0986 40.6326C34.141 40.6169 34.184 40.6028 34.2274 40.5901C34.2708 40.5775 34.3147 40.5661 34.3589 40.5565C34.385 40.5507 34.4492 40.5495 34.4799 40.5366C34.4552 40.5433 34.4143 40.54 34.4711 40.5352C34.4765 40.5347 34.4818 40.5343 34.4871 40.5338C34.4885 40.5329 34.4914 40.5326 34.4924 40.5315C34.4914 40.5324 34.4896 40.5329 34.4884 40.5336C34.5051 40.532 34.5219 40.5304 34.5388 40.5292C34.5896 40.5257 34.6406 40.5241 34.6916 40.5243C34.7369 40.5244 34.7823 40.526 34.8275 40.529C34.8502 40.5306 34.8728 40.5326 34.8954 40.5348C34.8986 40.5352 34.9063 40.5361 34.9146 40.5366C34.8564 40.5311 34.928 40.54 34.9411 40.5424C34.9633 40.5465 34.9854 40.5509 35.0076 40.5558C35.0517 40.5654 35.0956 40.5767 35.1392 40.5892C35.1826 40.6019 35.2255 40.616 35.268 40.6315C35.2705 40.6324 35.2759 40.6343 35.2821 40.6368C35.2938 40.6416 35.3095 40.6479 35.3144 40.6504C35.3368 40.661 35.3583 40.6732 35.3802 40.6846C35.4838 40.8018 35.6436 40.8736 35.7978 40.8544C35.9353 40.8512 36.0729 40.7886 36.1565 40.683C36.1715 40.6751 36.1853 40.6649 36.2006 40.6576C36.2033 40.6562 36.2177 40.6504 36.232 40.6444C36.2161 40.6497 36.207 40.6513 36.2463 40.6374C36.2479 40.6368 36.2495 40.6365 36.2509 40.6358C36.2574 40.6328 36.2622 40.6303 36.2622 40.6292C36.2622 40.6305 36.2602 40.6319 36.2574 40.6336C36.2964 40.6199 36.3352 40.6059 36.3747 40.5941C36.4183 40.5809 36.4621 40.5694 36.5062 40.5594C36.527 40.5546 36.6011 40.5507 36.6285 40.5384C36.6048 40.5445 36.5582 40.5423 36.618 40.5364C36.6242 40.5361 36.6306 40.5355 36.6367 40.5348C36.6373 40.5343 36.6389 40.5341 36.6394 40.5336C36.639 40.5341 36.6382 40.5343 36.6376 40.5348C36.6537 40.5333 36.6696 40.5315 36.6858 40.5303C36.7366 40.5264 36.7876 40.5244 36.8386 40.5243C36.8839 40.5241 36.9293 40.5255 36.9746 40.5283C36.9972 40.5296 37.0198 40.5313 37.0424 40.5336C37.045 40.5338 37.0508 40.5345 37.0574 40.5352C37.0693 40.537 37.0833 40.5391 37.0881 40.54C37.1105 40.5438 37.1327 40.5483 37.1547 40.5528C37.199 40.5624 37.243 40.5731 37.2865 40.5857C37.3299 40.5978 37.3732 40.6116 37.4157 40.6269C37.4314 40.6326 37.4467 40.6388 37.4623 40.6446C37.4623 40.6448 37.4623 40.6448 37.4624 40.6448C37.548 40.6903 37.6327 40.7323 37.714 40.7856C37.7962 40.8392 37.8968 40.8554 37.9954 40.8434C38.1853 41.2727 38.398 41.6915 38.632 42.0982C38.6165 42.1134 38.6024 42.1294 38.5888 42.1462C38.5545 42.1566 38.5203 42.1668 38.4857 42.176C38.3818 42.204 38.2767 42.2268 38.1706 42.2448C38.1604 42.2466 38.1018 42.2542 38.0877 42.2563C38.0342 42.2621 37.9806 42.2672 37.9266 42.2707C37.8271 42.2769 37.7269 42.2787 37.6272 42.2767C37.5272 42.2744 37.4277 42.2667 37.3282 42.2575C37.3119 42.2556 37.3012 42.2543 37.2934 42.2535C37.2698 42.2497 37.246 42.2462 37.2221 42.242C37.1768 42.2342 37.1315 42.2256 37.0865 42.2157C36.9813 42.1933 36.877 42.1659 36.7745 42.1337C36.7306 42.1197 36.6868 42.1051 36.6434 42.0895C36.6285 42.0843 36.4704 42.0211 36.5394 42.0506C36.3188 41.9556 36.0353 41.9777 35.9095 42.2159C35.8047 42.414 35.8384 42.7439 36.0746 42.8457C36.6253 43.0828 37.2089 43.2148 37.8116 43.1966C38.1046 43.1878 38.4017 43.1476 38.686 43.0756C38.8298 43.0391 38.9908 43.0001 39.1211 42.9271C39.1283 42.9232 39.1348 42.9177 39.142 42.9131C40.0946 44.324 41.3157 45.5569 42.7412 46.5197C43.6197 47.113 44.5736 47.5841 45.5719 47.9386C46.4281 49.251 46.7365 50.8694 46.3722 52.404C46.3381 52.5483 46.3681 52.672 46.4344 52.7671C46.487 52.9913 46.6899 53.1718 46.8991 53.1614C46.932 53.525 46.9027 53.9068 46.9064 54.2415C46.9136 54.9056 46.9942 55.6207 46.833 56.271C46.6855 56.865 46.3836 57.4354 46.1073 57.9788C45.8875 58.4106 45.6417 58.8169 45.3259 59.1757C44.2134 58.124 43.0226 56.8717 43.2119 55.229C43.2405 54.9815 42.9799 54.7685 42.7516 54.7685C42.479 54.7685 42.3199 54.9809 42.2913 55.229C42.06 57.235 43.571 58.7945 44.9143 60.0521C44.9951 60.1274 45.0835 60.1662 45.171 60.1768C45.3295 60.2634 45.532 60.268 45.7019 60.1112C46.2109 59.6408 46.5897 59.0582 46.9021 58.4436C47.2315 57.7959 47.6063 57.0963 47.7518 56.3797C47.9078 55.6129 47.8332 54.8017 47.8247 54.0247C47.821 53.6858 47.8288 53.3373 47.7959 52.9973C48.6365 54.0257 49.0975 55.3304 49.0662 56.6754C49.0528 57.2514 49.9193 57.2659 49.9812 56.7227C51.2806 55.1314 51.9685 53.1978 52.2344 51.1738Z" fill="white"/>
</svg>
