<svg width="55" height="44" viewBox="0 0 55 44" fill="none" xmlns="http://www.w3.org/2000/svg">
<path d="M12.1867 0C15.471 0 18.2368 1.11828 20.484 3.35483C22.7311 5.59139 23.8547 8.34409 23.8547 11.6129C23.8547 13.5054 23.5522 15.3978 22.9472 17.2903C22.3422 19.1828 21.2618 21.8495 19.7061 25.2903L11.5384 44H0L5.57475 21.2903C3.93258 20.172 2.63612 18.7957 1.68539 17.1613C0.821087 15.4409 0.388936 13.5914 0.388936 11.6129C0.388936 8.34409 1.51253 5.59139 3.75971 3.35483C6.0069 1.11828 8.81588 0 12.1867 0Z" fill="#DBDBDB"/>
<path d="M43.3319 0C46.6163 0 49.382 1.11828 51.6292 3.35483C53.8764 5.59139 55 8.34409 55 11.6129C55 13.5054 54.6975 15.3978 54.0925 17.2903C53.4875 19.1828 52.4071 21.8495 50.8513 25.2903L42.6837 44H31.1453L36.72 21.2903C35.0778 20.172 33.7814 18.7957 32.8307 17.1613C31.9663 15.4409 31.5342 13.5914 31.5342 11.6129C31.5342 8.34409 32.6578 5.59139 34.905 3.35483C37.1522 1.11828 39.9611 0 43.3319 0Z" fill="#DBDBDB"/>
</svg>
